<?xml version="1.0" encoding="iso-8859-1"?>
<!-- Generator: Adobe Illustrator 19.0.0, SVG Export Plug-In . SVG Version: 6.00 Build 0)  -->
<svg version="1.1" id="Capa_1" xmlns="http://www.w3.org/2000/svg" xmlns:xlink="http://www.w3.org/1999/xlink" x="0px" y="0px"
	 viewBox="0 0 464 464" style="enable-background:new 0 0 464 464;" xml:space="preserve">
<path style="fill:#88B337;" d="M104,4h32c53.019,0,96,42.981,96,96l0,0h-32C146.981,100,104,57.019,104,4L104,4z"/>
<path style="fill:#6A9923;" d="M264,100h-32l0,0c0-53.019,42.981-96,96-96h32l0,0C360,57.019,317.019,100,264,100z"/>
<path style="fill:#88B337;" d="M232,196c-4.418,0-8-3.582-8-8v-88c0-4.418,3.582-8,8-8s8,3.582,8,8v88
	C240,192.418,236.418,196,232,196z"/>
<path style="fill:#8C421C;" d="M392,332H72l119.52-126.552C202.039,194.312,216.681,188.001,232,188
	c15.319,0.001,29.961,6.312,40.48,17.448L392,332z"/>
<path style="fill:#733616;" d="M297.6,232c-35.505,39.297-76.737,73.01-122.304,100H392L297.6,232z"/>
<path style="fill:#F2BB80;" d="M439.768,252c-5.052-0.001-9.977,1.576-14.088,4.512l-62.688,44.8L320,332H152
	c-8.837,0-16-7.163-16-16s7.163-16,16-16h104c13.255,0,24-10.745,24-24s-10.745-24-24-24H142.52
	c-32.89,0.001-62.428,20.132-74.456,50.744L0,460h144l16-48l160-16l133.952-96.744C460.262,294.7,464,287.391,464,279.608v-3.376
	C464,262.849,453.151,252,439.768,252L439.768,252z"/>
<g>
</g>
<g>
</g>
<g>
</g>
<g>
</g>
<g>
</g>
<g>
</g>
<g>
</g>
<g>
</g>
<g>
</g>
<g>
</g>
<g>
</g>
<g>
</g>
<g>
</g>
<g>
</g>
<g>
</g>
</svg>
